<svg xmlns="http://www.w3.org/2000/svg" fill="none" viewBox="10 10 18.95 19.84">
<g filter="url(#filter0_d_697_2716)">
<path d="M15.339 10.0001C13.4934 12.6924 12.9587 16.2169 14.2169 19.4947L14.431 20.0527C16.4638 25.3481 22.4046 27.9931 27.7 25.9604C28.136 25.793 28.5526 25.5964 28.9515 25.3785C27.8157 27.0353 26.1849 28.3778 24.1678 29.1521C18.8724 31.1848 12.9315 28.5398 10.8988 23.2444L10.6846 22.6864C8.81966 17.8277 10.8939 12.428 15.339 10.0001Z" fill="#FFD914"/>
<path d="M21.0369 15.1838L21.7104 17.2568L23.89 17.2568L22.1267 18.5379L22.8002 20.6109L21.0369 19.3297L19.2735 20.6109L19.9471 18.5379L18.1837 17.2568L20.3633 17.2568L21.0369 15.1838Z" fill="#FFD914"/>
</g>
<defs>
<filter id="filter0_d_697_2716" x="0" y="0" width="42.9515" height="43.8369" filterUnits="userSpaceOnUse" color-interpolation-filters="sRGB">
<feFlood flood-opacity="0" result="BackgroundImageFix"/>
<feColorMatrix in="SourceAlpha" type="matrix" values="0 0 0 0 0 0 0 0 0 0 0 0 0 0 0 0 0 0 127 0" result="hardAlpha"/>
<feOffset dx="2" dy="2"/>
<feGaussianBlur stdDeviation="6"/>
<feComposite in2="hardAlpha" operator="out"/>
<feColorMatrix type="matrix" values="0 0 0 0 1 0 0 0 0 1 0 0 0 0 1 0 0 0 0.25 0"/>
<feBlend mode="normal" in2="BackgroundImageFix" result="effect1_dropShadow_697_2716"/>
<feBlend mode="normal" in="SourceGraphic" in2="effect1_dropShadow_697_2716" result="shape"/>
</filter>
</defs>
</svg>